<svg xmlns="http://www.w3.org/2000/svg" width="111.389" height="68.58" viewBox="0 0 111.389 68.58">
  <g id="Group_2" data-name="Group 2" transform="translate(-74 -20)">
    <g id="sturebadet-logo" transform="translate(74 20)">
      <path id="Path_1" data-name="Path 1" d="M45.864,31.994a19.886,19.886,0,0,0,4.851-6,44.161,44.161,0,0,0,2.274-4.54c.58-1.327,1.11-2.667,1.461-3.554l.246-.62.059-.148c1.238-3.082,2.317-5.53,3.207-7.274a20.1,20.1,0,0,1,5.129-6.907A12.918,12.918,0,0,1,71.522,0,11.94,11.94,0,0,1,81.763,5.451C83.882,8.664,85,13.287,85,18.844q0,.236,0,.474a55.19,55.19,0,0,1-2.916,16.394l-.011.028-1.854-.372.014-.04a58.113,58.113,0,0,0,2.848-14.985q.028-.8.028-1.564c0-4.624-.757-8.481-2.211-11.223a10.6,10.6,0,0,0-9.065-5.584H71.8a11.142,11.142,0,0,0-6.263,1.65A13.857,13.857,0,0,0,61.7,7.5a35.023,35.023,0,0,0-2.775,5.564l-.246.575c-.558,1.305-1.191,2.785-1.823,4.373a74.958,74.958,0,0,1-4.074,8.94,19.672,19.672,0,0,1-5.32,6.67A12.389,12.389,0,0,1,28.952,29.6a24.008,24.008,0,0,1-2.507-11.227q0-.225,0-.456a59.569,59.569,0,0,1,.7-8.756c.4-2.55,1.25-6.1,1.346-6.5l.011-.043,1.416.33-.008.036c-.007.03-.745,3.187-1.268,7.029a51.338,51.338,0,0,0-.528,6.885q0,.26,0,.516c0,5.513.954,9.33,3.073,12.326A10.293,10.293,0,0,0,39.463,34a10.929,10.929,0,0,0,6.4-2.007" fill="#fff" fill-rule="evenodd"></path>
      <g id="Group_1" data-name="Group 1" transform="translate(0 57)">
        <path id="Path_2" data-name="Path 2" d="M6.575,8.66a2.539,2.539,0,0,1-1,2.143,3.69,3.69,0,0,1-2.317.7A7.085,7.085,0,0,1,0,10.8l.189-.945a8.711,8.711,0,0,0,2.837.532q2.382,0,2.383-1.594,0-1.03-1.4-1.828Q2.712,6.254,1.4,5.541A3.065,3.065,0,0,1,0,2.966,2.507,2.507,0,0,1,1.167.757,3.693,3.693,0,0,1,3.2.175a7.841,7.841,0,0,1,3.038.5l-.188.915a9.446,9.446,0,0,0-2.425-.373A3.132,3.132,0,0,0,1.752,1.7a1.393,1.393,0,0,0-.595,1.163q0,1.031,1.409,1.828,1.3.714,2.6,1.412A3.045,3.045,0,0,1,6.575,8.66" fill="#fff" fill-rule="evenodd"></path>
        <path id="Path_3" data-name="Path 3" d="M17.944,1.172H14.472V11.58H13.138V1.172H9.444V.15h8.5Z" fill="#fff" fill-rule="evenodd"></path>
        <path id="Path_4" data-name="Path 4" d="M29.277,11.419H28.123V10.162a5.624,5.624,0,0,1-1.739.922,7.2,7.2,0,0,1-2.5.5q-3.1,0-3.1-3.283V.15h1.252V8.462q0,2,2.1,2.005a6.285,6.285,0,0,0,2.064-.408,8.179,8.179,0,0,0,1.8-.85V.15h1.284Zm9.639-4.865a3.336,3.336,0,0,0,2.206-3.277,2.989,2.989,0,0,0-1.048-2.5A2.9,2.9,0,0,0,38.212.15H34.943V11.3h1.189V6.727h1.517l3.629,4.853,1.22-.3ZM36.132,5.8V1.145H37.9a2,2,0,0,1,1.376.471,2.219,2.219,0,0,1,.657,1.765,2.512,2.512,0,0,1-1.5,2.421Z" fill="#fff" fill-rule="evenodd"></path>
        <path id="Path_5" data-name="Path 5" d="M51.942,11.58H46.276V.15h5.418V1.17H47.5V5.2H51.57V6.237H47.5v4.309h4.44Z" fill="#fff" fill-rule="evenodd"></path>
        <path id="Path_6" data-name="Path 6" d="M61.087,10.58H58.823V6.151h2.592a2.487,2.487,0,0,1,1.509,2.292,2.48,2.48,0,0,1-.443,1.534A1.7,1.7,0,0,1,61.087,10.58Zm1.1-5a3.1,3.1,0,0,0,1.361-2.672A2.538,2.538,0,0,0,62.4.564,3.064,3.064,0,0,0,60.792.15H57.609V11.58h3.544a2.932,2.932,0,0,0,2.345-.948,3.32,3.32,0,0,0,.722-2.207,3.163,3.163,0,0,0-.426-1.568A2.871,2.871,0,0,0,62.186,5.58ZM58.823,5.2V1.17h1.739q1.689,0,1.689,1.844A2.976,2.976,0,0,1,61.333,5.2ZM72.852.15H71.411L67.053,11.461l1.242.119L69.621,8.1h5.02l1.425,3.484,1.376-.119ZM69.936,7.139,72.122,1.1l2.221,6.039ZM84.517.15h-3.3V11.58h3.3a4.787,4.787,0,0,0,3.969-1.741A6.291,6.291,0,0,0,89.719,5.8,6.192,6.192,0,0,0,88.55,1.943,4.8,4.8,0,0,0,84.517.15Zm.064,10.482H82.5v-9.5h2.017a3.4,3.4,0,0,1,3.009,1.518,5.654,5.654,0,0,1,.848,3.225,5.783,5.783,0,0,1-.88,3.294A3.344,3.344,0,0,1,84.581,10.632Z" fill="#fff" fill-rule="evenodd"></path>
        <path id="Path_7" data-name="Path 7" d="M99.163,11.58H93.5V.15h5.418V1.17H94.723V5.2H98.79V6.237H94.723v4.309h4.44Z" fill="#fff" fill-rule="evenodd"></path>
        <path id="Path_8" data-name="Path 8" d="M111.389,1.316h-3.4V11.5h-1.308V1.316H103.06v-1h8.329Z" fill="#fff" fill-rule="evenodd"></path>
      </g>
    </g>
  </g>
</svg>
